<?xml version="1.0" encoding="iso-8859-1"?>
<!-- Generator: Adobe Illustrator 19.0.0, SVG Export Plug-In . SVG Version: 6.00 Build 0)  -->
<svg version="1.1" id="Layer_1" xmlns="http://www.w3.org/2000/svg" xmlns:xlink="http://www.w3.org/1999/xlink" x="0px" y="0px"
	 viewBox="0 0 508 508" style="enable-background:new 0 0 508 508;" xml:space="preserve">
<circle style="fill:#90DFAA;" cx="254" cy="254" r="254"/>
<path style="fill:#2C9984;" d="M71.6,429.6c46.4,48,111.2,78.4,183.2,78.4s136.8-30,183.2-78.4H71.6z"/>
<path style="fill:#324A5E;" d="M420,380.4H89.2c-9.6,0-17.2-7.6-17.2-17.2V136.8c0-9.6,7.6-17.2,17.2-17.2H420
	c9.6,0,17.2,7.6,17.2,17.2v226.4C437.2,372.8,429.6,380.4,420,380.4z"/>
<rect x="86" y="142.8" style="fill:#FFFFFF;" width="337.6" height="186.4"/>
<path style="fill:#2B3B4E;" d="M326.4,429.6h-144v-9.2c0-5.2,4.4-9.6,9.6-9.6h124.4c5.2,0,9.6,4.4,9.6,9.6v9.2H326.4z"/>
<rect x="208.8" y="380.4" style="fill:#324A5E;" width="91.2" height="30.4"/>
<rect x="208.8" y="380.4" style="fill:#2B3B4E;" width="91.2" height="9.6"/>
<path style="fill:#54C0EB;" d="M310.4,226c-1.6-8-4.8-15.6-9.2-22.4l5.6-9.6l-10.4-10.4l-9.6,5.6c-6.4-4.4-14-8-22.4-9.2l-2.4-10.4
	h-14.8l-2.8,10.8c-8,1.6-15.6,4.8-22.4,9.2l-9.6-5.6l-10,10l5.6,9.6c-4.4,6.4-7.6,14-9.2,22.4l-10.8,2.8v14.8l10.8,2.8
	c1.6,8,4.8,15.6,9.2,22.4l-5.6,9.2l10.4,10.4l9.6-5.6c6.4,4.4,14,7.6,22.4,9.2l2.8,10.8H262l2.8-10.8c8-1.6,15.6-4.8,22.4-9.2
	l9.6,5.6l10.4-10.4l-5.6-9.6c4.4-6.4,7.6-14,9.2-22.4l10.8-2.8v-14.8L310.4,226z M254.8,268.8c-18,0-32.8-14.8-32.8-32.8
	s14.8-32.8,32.8-32.8s32.8,14.8,32.8,32.8C287.2,254,272.8,268.8,254.8,268.8z"/>
<circle style="fill:#CED5E0;" cx="254.8" cy="355.2" r="11.6"/>
<g>
</g>
<g>
</g>
<g>
</g>
<g>
</g>
<g>
</g>
<g>
</g>
<g>
</g>
<g>
</g>
<g>
</g>
<g>
</g>
<g>
</g>
<g>
</g>
<g>
</g>
<g>
</g>
<g>
</g>
</svg>
