<?xml version="1.0" encoding="utf-8"?>
<!-- Generator: Adobe Illustrator 22.1.0, SVG Export Plug-In . SVG Version: 6.00 Build 0)  -->
<svg version="1.1" id="Layer_1" xmlns="http://www.w3.org/2000/svg" xmlns:xlink="http://www.w3.org/1999/xlink" x="0px" y="0px"
	 viewBox="0 0 508 508" style="enable-background:new 0 0 508 508;" xml:space="preserve">
<style type="text/css">
	.st0{fill:#17171D;}
	.st1{fill:#FFFFFF;}
	.st2{fill:#324A5E;}
	.st3{fill:#54C0EB;}
</style>
<circle class="st0" cx="254" cy="254" r="254"/>
<path class="st1" d="M438.4,237.2v33.6l-30.4,8.8c-4,23.2-12.8,45.6-27.2,65.2l15.2,27.6L372.4,396l-27.6-15.2
	c-20,14.4-42,23.2-65.2,27.2l-8.8,30.4h-33.6l-8.8-30.4c-23.2-4-45.2-12.8-65.2-27.2L135.6,396L112,372.4l15.2-27.6
	c-14-20-23.2-42-27.2-65.2l-30.4-8.8v-33.6l30.4-8.8c4-23.2,12.8-45.2,27.2-65.2L112,135.6l23.6-23.6l27.6,15.2
	c20-14,42-23.2,65.2-27.2l8.8-30.4h33.6l8.8,30.4c23.2,4,45.6,12.8,65.2,27.2l27.6-15.2l23.6,23.6l-15.2,27.6
	c14.4,20,23.2,42,27.2,65.2L438.4,237.2z"/>
<circle class="st2" cx="254" cy="254" r="99.2"/>
<g>
	<path class="st3" d="M353.2,254c0-32.8-16-62-40.4-80c0,1.2,0.4,2.4,0.8,3.6c-2.8,1.2-6,2-9.2,1.6c-2,4,1.2,9.2-1.6,12.8
		c-1.2,1.6-3.2,2-4.4,3.2c-2.4,2.4-2,7.2,0.8,9.2s7.6,0.4,8.8-2.8c0.8-2.4,0-5.2,0.8-7.6c1.6-4,7.6-6.4,6.8-10.8
		c2.4,2.8,0,7.2,1.2,10.4c0.8,2,2.8,3.2,4,4.8s1.6,4.4,0,5.6c-2.4-0.4-4.4,1.6-5.2,3.6c-0.8,2-0.4,4.4,0,6.8
		c-5.6,0-11.2-0.4-16.8-0.4c-1.2,0-2.8,0-4,0.8c-3.6,2-1.6,8.8-5.2,10.4c-2.4,0.8-5.6-0.8-7.2,0.8c-0.4,0.8-0.8,1.6-0.8,2.4
		c-0.4,2.4-0.4,4.8,0,6.8c0.8,2.4,2.4,4.4,4.4,4.8c3.2,0.4,6-2.4,7.6-5.6c1.6-3.2,2.8-6.4,5.6-8c2-1.2,4.8-1.2,7.2-0.8
		c8.8,1.6,16.8,7.2,21.6,14.8c1.2,2,2.4,4.8,1.2,6.8c-1.2,2-4,2.4-6.8,2.4c-4.4,0-8.8,0.4-13.2-1.2c-4-1.6-7.6-5.2-7.6-10
		c-5.2,0.8-10,3.2-14,6.8c-2.4,2-4,4.8-6.8,6.4c-2,1.2-4,2.4-6,3.6c-5.2,4.4-5.2,12-4.8,18.4c0,4.8,0.8,10.8,4.8,13.6
		c2.8,2,6.8,2,10.4,2c4.4,0,8.8-0.4,13.2-0.4c0,11.6,0.4,22.8,0.4,34.4c0,5.6,1.2,12.4,6.4,14c0.4,0,0.4,0,0.8,0
		C334.8,320,353.2,289.2,353.2,254z"/>
	<path class="st3" d="M248,300c-2.4-1.6-6.4-1.2-8-4c-0.8-1.2-0.8-2.4-1.2-3.6c-1.2-2.4-3.6-3.6-6-4.4c-6.8-3.6-12.4-8.4-19.6-10.4
		c-7.2-2-16.4-0.4-19.6,6.4c-1.2,2.4-1.2,5.6-1.2,8.4c0,4.8,0.8,9.6,4,13.2c2.4,2.8,6.4,4.8,7.6,8.4c0.8,2,0.8,4.4,0.8,6.4
		c-0.4,6.4-0.4,12.8-0.8,19.2c4.4,2.4,9.2,4.8,14,6.8c0.4,0,1.2-0.4,1.6-0.4c1.6-0.4,3.6-0.8,4.8-2c1.2-1.6,1.6-3.6,2.4-5.2
		c2.4-5.2,9.6-6.8,12-12c2-4.8,0-11.2,3.6-14.8c1.6-1.6,4.4-2,6-3.6C250.8,306,250.8,302,248,300z"/>
	<path class="st3" d="M220.4,160.8c0.4,1.2,0.8,2.4,1.6,3.6c0.8,1.2,2.4,2,3.6,2.8c4,2.8,8.4,6.4,9.6,11.2c0.8,2.8,0.4,5.6,0,8.4
		c0,2.8,0,5.6,1.6,8s4.8,3.6,7.2,1.6c1.2-0.8,1.6-2.4,2.4-3.2c3.2-4,10.4-4.8,11.2-10c0.4-2.4-1.2-5.2,0.4-7.6
		c1.2-1.6,3.2-2,5.2-3.2c5.2-2.4,6.4-9.2,5.6-14.8c0-0.4,0-1.2-0.4-1.6c-4.8-0.8-9.6-1.2-14.8-1.2
		C242.4,154.8,230.8,156.8,220.4,160.8z"/>
	<path class="st3" d="M212.4,164c-33.6,15.6-57.2,49.6-57.2,89.2c4.4,4.8,8.4,9.6,12.4,14.8c2.8,4,5.6,8.4,9.6,11.2
		c4,2.8,9.6,4.4,14,2c2.4-1.2,2.8-4,2.4-6.4c-0.8-2.4-2.4-4.4-4-6c-2-2.4-4.4-4.8-7.2-6.4c-1.6-0.8-3.6-1.6-4.4-3.2
		c-1.2-2.4,1.2-5.6,3.6-6.4c2.8-0.8,5.6-0.4,8.4-0.4c2.8,0,6-0.4,7.6-2.4c0.8-1.2,1.2-2.8,2-4c3.2-6,12.4-6.4,16.4-12
		c1.6-2.4,2-5.6,2.8-8.4c0.8-2.8,2.8-5.6,6-6c2-0.4,4.8,0.8,6.4-0.8c0.4-0.8,0.4-1.6,0.4-2.4c0-5.6-2.8-11.2-7.6-14.4
		c-1.2-0.8-2.4-1.6-3.6-2.4c-0.8-1.2-1.2-2.8,0-4c0.8-0.4,1.6-0.8,2.4-1.2c3.2-1.6,2.8-5.6,2.4-8.8c-0.4-3.6-1.6-7.6-4.8-8.8
		c-2.8-1.2-6.8,0.4-8.8-2c-1.6-1.6-0.8-4.4,0-6.4C211.2,167.2,211.6,165.6,212.4,164z"/>
</g>
</svg>
