<svg xmlns="http://www.w3.org/2000/svg" viewBox="0 0 135.5 182"><title>SII-logo</title><g id="Layer_2" data-name="Layer 2"><rect width="135.5" height="182" fill="#54c0eb"/></g><g id="Layer_3" data-name="Layer 3"><rect x="8.66667" y="10" width="118" height="118" fill="#17171d"/><rect x="8.83333" y="136.75" width="118" height="36.5" fill="#17171d"/><path d="M85.08236,118.41732a12.85991,12.85991,0,0,0,3.90136,2.58008,18.37556,18.37556,0,0,0,7.17334,1.06933,25.849,25.849,0,0,0,7.55079-1.06933,17.90447,17.90447,0,0,0,6.104-3.14649,15.35824,15.35824,0,0,0,4.08984-5.03418,14.58873,14.58873,0,0,0,1.51026-6.73242,12.08509,12.08509,0,0,0-3.0835-8.43213,31.41417,31.41417,0,0,0-7.67676-6.04053q-4.5952-2.6433-10.00488-5.16015A55.19871,55.19871,0,0,1,84.64193,80.474a31.4146,31.4146,0,0,1-7.67676-8.30615,22.19526,22.19526,0,0,1-3.0835-12.14454,22.57309,22.57309,0,0,1,1.8877-9.43847A19.68393,19.68393,0,0,1,81.118,43.537a24.75846,24.75846,0,0,1,8.24317-4.46729,34.12109,34.12109,0,0,1,10.69726-1.57324,76.18148,76.18148,0,0,1,14.03223,1.19531,41.27755,41.27755,0,0,1,10.00488,2.95752,46.11788,46.11788,0,0,1-.31445,4.97119q-.31568,2.83155-.75537,5.852-.4424,3.02052-.94385,5.852-.50464,2.83155-1.00684,4.97071h-3.272L112.76888,46.054a22.53856,22.53856,0,0,0-5.77881-1.51026,52.36651,52.36651,0,0,0-7.4292-.50342q-6.47754,0-10.416,3.58692-3.9375,3.58666-3.93653,10.00488a12.66372,12.66372,0,0,0,3.10059,8.6836A31.80186,31.80186,0,0,0,96.096,72.60824q4.68384,2.77,10.06592,5.34863a64.85351,64.85351,0,0,1,10.064,5.978,31.46107,31.46107,0,0,1,7.78662,8.0542,20.42928,20.42928,0,0,1,3.103,11.57763A25.0596,25.0596,0,0,1,125.0389,113.887a21.806,21.806,0,0,1-5.97754,7.92774,27.26573,27.26573,0,0,1-9.56445,5.03418,43.19482,43.19482,0,0,1-12.83643,1.76172,49.45168,49.45168,0,0,1-14.22119-1.8877q-6.29444-1.88672-8.93506-4.02637.12378-2.13867.44043-5.16015.31275-3.02051.75488-6.22949.43945-3.20947.94385-6.2295.50171-3.02051,1.00684-5.16015h3.27246Z" transform="translate(-32.18175 -13.33333)" fill="#54c0eb"/><path d="M72.50521,175.20247a2.65582,2.65582,0,0,0,.80859.53516,3.8177,3.8177,0,0,0,1.48682.22168,5.37043,5.37043,0,0,0,1.56445-.22168,3.70493,3.70493,0,0,0,1.26514-.65234,3.19123,3.19123,0,0,0,.84765-1.043,3.02673,3.02673,0,0,0,.313-1.39551,2.50284,2.50284,0,0,0-.63916-1.74707,6.51235,6.51235,0,0,0-1.59082-1.252q-.95214-.54786-2.07324-1.06934a11.44475,11.44475,0,0,1-2.07373-1.23926,6.50144,6.50144,0,0,1-1.59082-1.72168,4.59829,4.59829,0,0,1-.63916-2.5166,4.67956,4.67956,0,0,1,.39111-1.95605,4.07959,4.07959,0,0,1,1.10889-1.46,5.12118,5.12118,0,0,1,1.708-.92676,7.08535,7.08535,0,0,1,2.21679-.3252,15.79185,15.79185,0,0,1,2.90821.24707,8.57672,8.57672,0,0,1,2.07324.61328,9.594,9.594,0,0,1-.06494,1.03028c-.04346.3916-.09571.79492-.15674,1.21289q-.09156.62548-.19531,1.21289-.10474.58593-.209,1.03027h-.67773L78.243,160.20638a4.66871,4.66871,0,0,0-1.19775-.31348,10.82839,10.82839,0,0,0-1.53955-.10449,3.08036,3.08036,0,0,0-2.15869.74414,2.662,2.662,0,0,0-.81592,2.07324,2.627,2.627,0,0,0,.64306,1.79981,6.61263,6.61263,0,0,0,1.61377,1.30371q.97047.57422,2.08594,1.1084a13.4138,13.4138,0,0,1,2.08545,1.23926,6.49644,6.49644,0,0,1,1.61377,1.66894,4.23506,4.23506,0,0,1,.64307,2.39942A5.191,5.191,0,0,1,80.786,174.264a4.51573,4.51573,0,0,1-1.23877,1.64258,5.65414,5.65414,0,0,1-1.98242,1.04394,8.95415,8.95415,0,0,1-2.66016.36426,10.25661,10.25661,0,0,1-2.94726-.39063,5.63626,5.63626,0,0,1-1.85157-.835q.02563-.44238.09131-1.06933.06445-.6255.15625-1.291.09156-.665.1958-1.291.104-.6255.2085-1.06934h.67822Z" transform="translate(-32.18175 -13.33333)" fill="#54c0eb"/><path d="M106.14974,177.00228H99.473v-.75684a7.55864,7.55864,0,0,1,2.08643-.625V160.15365a9.106,9.106,0,0,1-1.04346-.27344q-.52149-.16992-1.043-.37793v-.75684h6.67676v.75684a9.38275,9.38275,0,0,1-1.01709.37793,10.629,10.629,0,0,1-1.06934.27344v15.46679q.54786.104,1.09522.26074a6.53364,6.53364,0,0,1,.99121.36426Z" transform="translate(-32.18175 -13.33333)" fill="#54c0eb"/><path d="M130.97884,177.00228H124.3016v-.75684a7.55858,7.55858,0,0,1,2.08642-.625V160.15365a9.10652,9.10652,0,0,1-1.04346-.27344q-.52148-.16992-1.043-.37793v-.75684h6.67724v.75684a9.3921,9.3921,0,0,1-1.01758.37793,10.62952,10.62952,0,0,1-1.06933.27344v15.46679q.54784.104,1.0957.26074a6.53364,6.53364,0,0,1,.99121.36426Z" transform="translate(-32.18175 -13.33333)" fill="#54c0eb"/></g></svg>